<svg width="64px" height="64px" viewBox="0 0 48 48" xmlns="http://www.w3.org/2000/svg" fill="#000000"><g id="SVGRepo_bgCarrier" stroke-width="0"></g><g id="SVGRepo_tracerCarrier" stroke-linecap="round" stroke-linejoin="round"></g><g id="SVGRepo_iconCarrier"><title>70 Basic icons by Xicons.co</title><path d="M7,11.59H41a0,0,0,0,1,0,0V42.5a4,4,0,0,1-4,4H11a4,4,0,0,1-4-4V11.59a0,0,0,0,1,0,0Z" fill="#BFBFBF"></path><path d="M43,13H5A2,2,0,0,1,5,9H43A2,2,0,0,1,43,13Z" fill="#000000"></path><path d="M16,38.5a2,2,0,0,1-2-2v-14a2,2,0,0,1,4,0v14A2,2,0,0,1,16,38.5Z" fill="#000000"></path><path d="M24,38.5a2,2,0,0,1-2-2v-14a2,2,0,0,1,4,0v14A2,2,0,0,1,24,38.5Z" fill="#000000"></path><path d="M32,38.5a2,2,0,0,1-2-2v-14a2,2,0,0,1,4,0v14A2,2,0,0,1,32,38.5Z" fill="#000000"></path><path d="M33,9H29V5H19V9H15V5a4,4,0,0,1,4-4H29a4,4,0,0,1,4,4V9Z" fill="#000000"></path></g></svg>